<svg xmlns="http://www.w3.org/2000/svg" viewBox="0 0 64 64">
  <defs>
    <linearGradient id="bg" x1="0" y1="0" x2="1" y2="1">
      <stop offset="0%" stop-color="#ff7a18" />
      <stop offset="100%" stop-color="#ff3d68" />
    </linearGradient>
  </defs>
  <rect x="4" y="4" width="56" height="56" rx="14" fill="url(#bg)" />
  <path d="M14 30 32 16l18 14v18a4 4 0 0 1-4 4H18a4 4 0 0 1-4-4Z" fill="#fff" opacity=".95" />
  <rect x="22" y="34" width="20" height="16" rx="2" fill="#ffb703" />
  <rect x="30" y="34" width="4" height="16" fill="#fb8500" />
  <rect x="22" y="39" width="20" height="4" fill="#fb8500" />
  <path d="M32 34c-3 0-5-2-5-4 0-2 2-3 4-3 2 0 3 1 4 3 1-2 2-3 4-3 2 0 4 1 4 3 0 2-2 4-5 4Z" fill="#ffd166" />
  <circle cx="48" cy="17" r="3" fill="#fff" />
  <circle cx="15" cy="18" r="2" fill="#fff" opacity=".85" />
</svg>
